# xmcd
#
# Track frame offsets:
#	150
#	17890
#	32639
#	46869
#	63941
#	77853
#	90293
#	103069
#	120118
#	144637
#	157341
#	166051
#	179028
#	191879
#	202137
#	219031
#
# Disc length: 3096
#
# Revision: 2
# Processed by: cddbd v1.5.1PL0 Copyright (c) Steve Scherf et al.
# Submitted via: audiograbber 1.83.01
# Normalized: r1:DSETVAR1
#
DISCID=d90c1610
DTITLE=Various Artist - Country Feelings - CD 2
DYEAR=1900
DGENRE=Country
TTITLE0=The Cumberland Boys - Will the Circle Be Unbroken
TTITLE1=Olivia Newton-John - The Banks of the Ohio
TTITLE2=John Brack - Washball Canonball
TTITLE3=Rebecca Holden - Cowboys Dream
TTITLE4=Willie Nelson - No Tomorrow in Sight
TTITLE5=Peter Hinnen - Send Me the Pillow That You Dream on
TTITLE6=Billy Troy - Blue Tail Fly
TTITLE7=Pam Gadd - Sweet Betsy from Pike
TTITLE8=John Brack - Streets of Laredo
TTITLE9=Susan Raye - L. A. International Airport
TTITLE10=The Nashville Quartet - Oh Susanna
TTITLE11=Billy Troy - Bury Me Not on the Lone Prairie
TTITLE12=The Nashville Pickers - On Top of Ol' smokey
TTITLE13=Freddy Fender - Crazy Baby
TTITLE14=Rebecca Holden - Old Paint
TTITLE15=Nashville Music Company - Green, Green Gass of Home
EXTD=
EXTT0=
EXTT1=
EXTT2=
EXTT3=
EXTT4=
EXTT5=
EXTT6=
EXTT7=
EXTT8=
EXTT9=
EXTT10=
EXTT11=
EXTT12=
EXTT13=
EXTT14=
EXTT15=
PLAYORDER=
